<svg xmlns="http://www.w3.org/2000/svg" width="25" height="26" viewBox="0 0 25 26" fill="none">
  <path fill-rule="evenodd" clip-rule="evenodd" d="M19.6366 7.29139C19.7257 7.20242 19.7963 7.09677 19.8446 6.98049C19.8928 6.8642 19.9177 6.73955 19.9178 6.61365C19.9179 6.48774 19.8932 6.36306 19.845 6.24671C19.7969 6.13037 19.7264 6.02464 19.6374 5.93556C19.5484 5.84648 19.4428 5.77579 19.3265 5.72754C19.2102 5.67929 19.0856 5.65441 18.9597 5.65434C18.8338 5.65426 18.7091 5.67898 18.5927 5.72709C18.4764 5.7752 18.3707 5.84575 18.2816 5.93472L12.4999 11.7164L6.71992 5.93472C6.54001 5.75482 6.29601 5.65375 6.04158 5.65375C5.78716 5.65375 5.54316 5.75482 5.36325 5.93472C5.18334 6.11463 5.08228 6.35863 5.08228 6.61306C5.08228 6.86748 5.18334 7.11148 5.36325 7.29139L11.1449 13.0714L5.36325 18.8514C5.27417 18.9405 5.20351 19.0462 5.1553 19.1626C5.10709 19.279 5.08228 19.4037 5.08228 19.5297C5.08228 19.6557 5.10709 19.7804 5.1553 19.8968C5.20351 20.0132 5.27417 20.119 5.36325 20.2081C5.54316 20.388 5.78716 20.489 6.04158 20.489C6.16756 20.489 6.29231 20.4642 6.40869 20.416C6.52508 20.3678 6.63084 20.2971 6.71992 20.2081L12.4999 14.4264L18.2816 20.2081C18.4615 20.3877 18.7054 20.4886 18.9597 20.4884C19.2139 20.4883 19.4577 20.3871 19.6374 20.2072C19.8171 20.0273 19.918 19.7834 19.9178 19.5291C19.9176 19.2749 19.8165 19.0311 19.6366 18.8514L13.8549 13.0714L19.6366 7.29139Z" fill="#170F49"/>
</svg>